<svg xmlns="http://www.w3.org/2000/svg" xmlns:xlink="http://www.w3.org/1999/xlink" width="500" zoomAndPan="magnify" viewBox="0 0 375 374.999991" height="500" preserveAspectRatio="xMidYMid meet" version="1.0"><defs><g/><clipPath id="e2b65a8f0c"><path d="M 102 8 L 365 8 L 365 293.722656 L 102 293.722656 Z M 102 8 " clip-rule="nonzero"/></clipPath><clipPath id="170d2c123b"><path d="M 89.511719 19 L 283 19 L 283 283 L 89.511719 283 Z M 89.511719 19 " clip-rule="nonzero"/></clipPath></defs><g clip-path="url(#e2b65a8f0c)"><path fill="#5eb23f" d="M 235.414062 293.726562 C 349.269531 243.976562 265.945312 168.363281 328.070312 76.445312 C 333.566406 120.511719 344.605469 168.316406 320.171875 214.925781 C 345.160156 175.523438 357.261719 92.703125 321.832031 56.167969 C 312.597656 46.652344 301.832031 38.246094 289.730469 31.363281 C 224.976562 -5.308594 143.636719 14.183594 102.207031 74.367188 C 142.757812 11.132812 226.175781 -10.023438 292.320312 27.484375 C 305.804688 35.105469 317.539062 44.621094 327.421875 55.476562 C 330.515625 58.847656 333.429688 62.355469 336.105469 66.007812 C 369.269531 109.980469 375.183594 171.136719 346.3125 222.082031 C 322.386719 264.253906 280.265625 289.566406 235.414062 293.726562 " fill-opacity="1" fill-rule="evenodd"/></g><g clip-path="url(#170d2c123b)"><path fill="#003c25" d="M 159.15625 40.269531 C 158.742188 42.304688 159.386719 44.335938 160.3125 45.582031 C 161.144531 45.308594 162.25 44.429688 162.898438 43.828125 C 162.851562 42.488281 162.296875 42.398438 161.742188 41.335938 C 160.957031 39.902344 160.863281 40.179688 159.15625 40.269531 Z M 154.027344 44.476562 C 155.136719 45.027344 156.246094 45.027344 156.847656 43.828125 C 157.722656 40.78125 154.398438 39.902344 152.964844 41.933594 C 152.136719 43.183594 152.964844 43.921875 154.027344 44.476562 Z M 152.78125 62.628906 C 153.058594 61.519531 153.382812 62.398438 153.152344 59.855469 C 151.582031 59.347656 150.378906 59.582031 149.273438 60.777344 C 147.5625 62.628906 148.949219 62.949219 148.394531 64.519531 C 147.007812 64.707031 147.191406 64.199219 145.667969 64.707031 C 144.605469 67.523438 147.007812 67.292969 148.210938 68.308594 C 148.671875 68.679688 148.855469 69.046875 149.273438 69.371094 C 154.304688 68.636719 152.503906 63.734375 152.78125 62.628906 Z M 161.925781 57.960938 C 160.496094 57.546875 158.878906 56.578125 156.246094 58.054688 C 155.046875 58.65625 154.90625 61.890625 154.90625 63.230469 L 155 64.75 L 157.402344 64.894531 C 158.277344 61.289062 157.910156 63.367188 160.125 61.703125 C 160.910156 61.058594 160.820312 60.546875 161.28125 59.855469 C 162.019531 58.746094 161.972656 59.441406 161.925781 57.960938 Z M 160.910156 50.570312 C 160.910156 53.066406 160.820312 53.433594 161.882812 55.144531 L 173.566406 53.621094 C 175.046875 53.480469 178.277344 54.683594 178.277344 49.785156 C 178.277344 48.449219 176.984375 47.710938 175.367188 47.710938 C 172.644531 47.710938 169.546875 51.175781 166.59375 50.203125 C 165.023438 49.695312 166.640625 49.925781 164.328125 49.648438 L 164.144531 49.605469 L 163.820312 49.511719 C 164.46875 48.078125 165.023438 49.972656 165.023438 47.894531 C 165.023438 46.554688 163.453125 46.507812 162.203125 46.460938 C 160.820312 46.417969 159.617188 46.230469 158.464844 46.371094 C 157.03125 46.601562 157.402344 48.078125 158.277344 48.863281 C 159.0625 49.554688 160.355469 49.554688 160.910156 50.570312 Z M 147.65625 50.988281 C 147.191406 52.929688 147.515625 53.808594 150.011719 55.515625 C 150.566406 55.933594 151.535156 56.070312 152.414062 55.839844 C 154.398438 55.328125 154.214844 54.269531 154.261719 53.898438 L 156.800781 55.746094 C 159.25 55.054688 160.265625 54.175781 158.972656 51.910156 L 156.753906 51.726562 C 155.921875 50.203125 155.691406 47.941406 153.152344 49.554688 C 151.351562 50.710938 150.378906 50.988281 147.65625 50.988281 Z M 129.871094 59.164062 C 130.566406 61.84375 135.460938 63 138.09375 61.703125 C 140.035156 60.777344 139.570312 59.625 141.421875 59.070312 C 142.945312 58.65625 142.203125 58.796875 143.269531 58.007812 C 143.867188 57.546875 144.882812 57.316406 145.390625 56.902344 C 145.34375 54.914062 145.070312 55.097656 143.773438 54.359375 C 144.050781 53.621094 144.007812 53.898438 143.820312 52.558594 C 140.449219 52.421875 142.066406 54.21875 140.773438 56.578125 L 137.722656 54.867188 C 136.429688 53.851562 136.152344 53.480469 134.539062 54.683594 C 133.058594 55.792969 130.472656 57.59375 129.871094 59.164062 Z M 190.65625 201.800781 C 188.71875 200.691406 183.035156 199.859375 182.25 204.847656 C 183.589844 205.078125 183.542969 204.664062 184.835938 205.21875 C 187.191406 206.140625 190.378906 205.171875 191.765625 204.15625 C 191.765625 203.230469 191.628906 202.355469 190.65625 201.800781 Z M 181.789062 199.8125 C 180.726562 199.441406 180.078125 198.796875 178.925781 198.195312 C 177.910156 197.691406 176.707031 197.226562 175.785156 196.761719 C 167.425781 192.789062 168.023438 194.964844 165.023438 195.007812 L 165.023438 197.503906 C 169.316406 197.179688 170.101562 197.042969 174.859375 199.582031 C 177.585938 201.058594 176.476562 201.382812 178.1875 201.519531 L 178.785156 201.566406 C 179.109375 201.660156 181.558594 204.015625 181.789062 199.8125 Z M 266.683594 88.632812 C 267.886719 88.355469 268.160156 87.984375 269.132812 89.328125 C 268.949219 90.109375 269.453125 89.695312 268.117188 90.019531 C 268.949219 94.453125 269.179688 91.035156 269.363281 93.761719 C 270.933594 94.082031 270.46875 93.714844 270.933594 95.375 C 274.8125 95.929688 273.148438 96.714844 275.136719 96.714844 C 276.429688 96.714844 278.738281 95.65625 279.574219 95.101562 C 280.726562 94.359375 282.019531 92.742188 282.988281 92.375 C 282.988281 90.019531 282.574219 88.816406 281.28125 87.480469 C 277.910156 84.011719 278.648438 86.601562 277.03125 86.601562 L 271.117188 86.601562 C 269.734375 86.601562 271.347656 85.585938 268.347656 85.214844 C 267.378906 86.507812 266.960938 86.414062 266.683594 88.632812 Z M 215.367188 57.917969 C 215.875 60.921875 213.105469 61.195312 215.183594 63.734375 C 217.171875 63.597656 216.382812 62.628906 218.695312 62.398438 C 218.972656 62.859375 219.0625 62.859375 219.292969 63.367188 C 219.617188 64.152344 219.25 63.96875 219.800781 64.519531 C 220.589844 65.355469 221.882812 64.429688 221.1875 66.738281 C 219.386719 66.554688 220.125 65.492188 218.417969 65.492188 C 214.167969 65.492188 215.738281 72.328125 217.863281 72.328125 C 219.292969 72.328125 219.988281 71.820312 221.09375 71.359375 C 221.09375 70.203125 221.003906 70.203125 220.542969 69.417969 L 221.925781 69.417969 C 223.5 74.269531 219.109375 73.207031 218.277344 75.515625 C 218.09375 76.070312 217.585938 76.484375 217.585938 77.222656 C 217.679688 89.050781 218.046875 81.980469 219.109375 86.507812 C 219.339844 87.523438 219.570312 89.28125 219.664062 90.527344 C 221.140625 90.433594 221.558594 89.835938 222.804688 90.25 C 222.757812 91.035156 221.925781 91.308594 221.925781 92.792969 C 221.925781 95.929688 222.25 96.484375 224.238281 98.792969 C 224.835938 99.488281 225.484375 99.808594 225.761719 100.503906 C 226.453125 102.492188 225.253906 102.445312 228.023438 103.089844 C 232.875 104.246094 232.78125 108.261719 236.613281 105.355469 C 236.660156 102.535156 237.582031 101.753906 237.675781 99.535156 C 237.769531 96.808594 238.230469 95.835938 239.941406 94.730469 C 239.941406 92.972656 239.800781 91.453125 240.265625 89.925781 C 240.957031 87.804688 241.324219 89.09375 241.929688 86.507812 C 244.789062 85.953125 246.59375 86.046875 248.761719 84.429688 C 251.441406 82.398438 252.550781 79.671875 253.519531 78.933594 C 253.566406 78.886719 254.074219 78.5625 254.167969 78.519531 C 255.554688 77.683594 257.449219 77.546875 259.292969 77.128906 C 266.410156 75.699219 262.25 74.175781 266.546875 74.175781 C 267.007812 73.300781 267.5625 72.789062 268.023438 71.960938 C 268.578125 70.941406 268.441406 70.15625 269.316406 69.507812 L 268.484375 66.96875 C 268.160156 65.125 267.976562 66.414062 267.238281 65.074219 C 266.960938 64.015625 267.65625 61.703125 267.5625 61.105469 C 267.332031 59.8125 266.820312 61.242188 266.820312 59.71875 C 266.820312 58.609375 267.191406 58.886719 267.378906 58.703125 C 267.792969 58.242188 267.929688 58.191406 267.886719 58.242188 C 268.117188 57.960938 267.839844 58.285156 268.117188 57.824219 C 268.484375 57.222656 268.253906 57.410156 268.761719 56.808594 C 271.441406 53.296875 268.902344 53.898438 268.484375 51.679688 C 269.777344 51.820312 269.503906 52.699219 270.886719 53.203125 C 271.8125 52.28125 272.089844 52.050781 271.949219 50.296875 C 267.976562 49.375 270.195312 49.695312 267.839844 47.664062 C 267.699219 47.570312 263.035156 44.382812 265.992188 44.382812 C 267.191406 44.382812 267.609375 45.171875 268.71875 44.382812 C 269.777344 43.042969 266.960938 41.703125 266.453125 41.285156 C 265.4375 40.550781 263.957031 39.765625 263.957031 38.191406 C 263.957031 33.804688 267.609375 32.558594 267.65625 29.1875 C 254.582031 25.074219 259.199219 28.449219 256.753906 28.632812 L 256.84375 26.089844 C 253.058594 24.796875 255.042969 25.539062 252.089844 26.785156 C 251.441406 25.953125 251.996094 26.230469 251.488281 25.261719 C 251.121094 24.523438 251.070312 24.796875 250.703125 24.199219 C 250.378906 23.738281 250.289062 23.226562 250.054688 22.953125 C 249.640625 22.398438 249.316406 22.488281 249.039062 22.027344 L 268.671875 27.941406 C 258.324219 23.921875 247.421875 21.152344 236.0625 19.808594 C 236.105469 19.855469 236.152344 19.855469 236.152344 19.855469 C 234.953125 22.398438 232.457031 20.363281 231.304688 20.363281 C 229.179688 20.363281 230.796875 20.964844 228.390625 21.242188 C 224.050781 21.796875 219.753906 21.703125 215.460938 21.425781 C 213.152344 21.289062 211.765625 22.351562 209.363281 21.980469 C 207.699219 21.703125 206.359375 21.011719 204.46875 21.242188 C 199.386719 21.9375 195.046875 22.996094 190.058594 23.828125 C 185.160156 24.660156 181.878906 27.199219 176.660156 27.199219 C 175.691406 28.265625 176.429688 28.496094 174.535156 28.632812 C 173.199219 28.769531 172.503906 29 172.089844 30.113281 C 172.734375 31.449219 173.199219 30.617188 173.707031 31.957031 C 171.304688 32.007812 172.503906 31.359375 171.074219 31.359375 L 168.902344 31.359375 C 168.300781 31.726562 164.746094 35.097656 164.191406 35.652344 C 163.175781 36.761719 163.589844 37.410156 164.238281 38.839844 C 165.808594 42.214844 166.59375 41.285156 168.484375 40.503906 C 169.457031 41.609375 169.226562 41.199219 169.179688 43.644531 C 168.347656 44.242188 167.238281 44.890625 166.5 45.722656 C 166.546875 45.769531 166.777344 46.09375 166.871094 46.183594 C 168.578125 48.078125 174.953125 46.371094 176.152344 45.257812 C 177.539062 45.90625 177.398438 46.277344 179.296875 45.632812 C 183.730469 44.011719 181.234375 43.367188 182.898438 40.320312 C 183.914062 38.515625 184.050781 38.886719 185.578125 38.5625 C 187.285156 38.148438 188.164062 33.207031 192.136719 31.265625 C 194.582031 30.113281 195.414062 29.324219 197.539062 27.570312 C 199.15625 26.277344 198.972656 26.921875 199.019531 24.429688 C 200.355469 24.335938 201.511719 24.523438 203.175781 24.015625 C 204.238281 23.6875 205.851562 23.089844 207.101562 23.6875 C 207.054688 24.796875 207.191406 24.335938 205.4375 24.9375 C 203.359375 25.628906 201.835938 26.738281 199.800781 27.339844 L 199.847656 29.277344 C 200.867188 29.324219 201.464844 29.417969 201.972656 30.113281 C 201.464844 31.21875 201.28125 30.15625 200.402344 31.957031 C 196.523438 31.957031 196.152344 33.574219 193.152344 34.453125 C 191.949219 34.820312 191.117188 34.3125 191.117188 35.511719 C 191.117188 40.550781 195.875 37.175781 199.800781 38.425781 C 198.738281 41.242188 195.046875 39.117188 193.429688 39.535156 C 192.78125 39.71875 192.410156 40.132812 191.949219 40.457031 C 192.089844 43.089844 192.734375 41.890625 193.984375 42.488281 C 194.722656 42.8125 194.953125 44.199219 195.367188 44.9375 C 198.832031 44.476562 202.25 43.96875 205.761719 43.96875 C 208.023438 43.96875 211.441406 47.753906 212.226562 49.460938 C 212.691406 50.480469 212.410156 49.878906 212.96875 50.621094 C 213.566406 51.496094 215.230469 57.179688 215.367188 57.917969 Z M 178.09375 70.527344 C 179.433594 71.542969 180.125 73.53125 180.125 75.605469 C 181.464844 75.605469 183.589844 75.746094 183.589844 77.039062 C 182.667969 77.871094 180.585938 77.128906 179.15625 77.683594 C 178.09375 78.378906 177.632812 81.980469 180.679688 81.75 C 183.453125 81.519531 183.589844 79.074219 185.484375 79.210938 C 185.761719 84.0625 184.28125 81.75 182.988281 85.675781 C 182.757812 86.414062 182.898438 86.875 182.757812 87.804688 C 178.371094 88.035156 176.660156 88.21875 176.660156 91.957031 C 180.679688 93.253906 179.386719 92.328125 183.175781 91.359375 C 187.886719 95.007812 184.144531 95.515625 191.996094 99.027344 C 193.75 99.808594 194.398438 100.457031 196.015625 99.488281 C 195.554688 96.160156 192.367188 96.210938 192.179688 94.546875 C 194.582031 94.730469 196.152344 96.390625 198.554688 96.945312 C 200.21875 92.191406 198.878906 92.097656 197.308594 90.25 C 194.859375 87.386719 194.304688 87.710938 194.445312 83.828125 C 197.863281 84.382812 196.707031 88.769531 200.402344 88.679688 C 203.082031 88.632812 204.238281 82.351562 204.144531 82.167969 C 203.453125 80.550781 202.757812 81.472656 201.601562 80.550781 L 199.339844 78.519531 C 195.046875 74.914062 195.277344 77.546875 195.230469 74.175781 C 195.96875 74.128906 196.109375 74.085938 196.476562 73.855469 C 196.476562 73.667969 195.738281 68.492188 195.367188 69.097656 C 195.320312 69.1875 195.136719 69.003906 195 68.910156 C 193.566406 68.125 194.257812 68.449219 193.335938 67.570312 C 192.089844 66.460938 192.089844 67.476562 190.839844 66.324219 C 188.578125 64.199219 189.78125 63.273438 186.085938 64.015625 C 185.667969 63.410156 185.253906 63.089844 184.699219 62.488281 C 183.960938 61.613281 183.128906 59.765625 182.574219 58.65625 C 181.878906 57.269531 182.113281 58.515625 182.15625 56.671875 C 178.234375 55.699219 181.742188 55.976562 175.367188 55.976562 C 174.214844 55.976562 175 56.484375 172.921875 56.578125 C 172.367188 56.625 172.273438 56.53125 171.765625 56.714844 C 171.074219 56.949219 171.949219 56.855469 170.703125 57.363281 C 168.117188 54.082031 163.496094 59.90625 162.296875 62.535156 C 161.925781 63.230469 161.28125 65.492188 160.957031 66.046875 C 162.527344 67.292969 162.714844 66.414062 164.007812 68.261719 C 163.035156 69.882812 163.082031 68.867188 162.390625 71.40625 C 165.992188 72.234375 171.210938 72.28125 175.09375 71.820312 C 177.445312 71.496094 176.707031 71.082031 178.09375 70.527344 Z M 155.785156 117.5 C 158.417969 118.425781 160.773438 119.761719 163.082031 121.242188 C 165.253906 122.628906 167.054688 121.382812 168.484375 123.042969 C 169.273438 124.847656 167.195312 129.832031 170.101562 131.40625 L 172.414062 132.746094 C 175.691406 131.128906 172.921875 128.679688 172.921875 126.140625 L 173.335938 123.597656 C 173.796875 122.121094 173.152344 122.953125 174.582031 122.398438 C 176.339844 121.796875 175.785156 121.566406 176.617188 119.90625 C 177.492188 118.195312 177.308594 118.515625 176.894531 116.347656 C 176.199219 112.464844 173.796875 111.636719 175.09375 110.019531 C 176.339844 108.449219 176.246094 109.324219 176.199219 106.507812 C 176.199219 104.984375 176.246094 103.460938 176.199219 101.933594 C 176.199219 98.195312 174.90625 98.933594 184.515625 99.027344 C 185.160156 99.996094 186.960938 101.933594 187.746094 102.492188 C 188.855469 103.183594 189.179688 102.722656 189.734375 104.015625 C 191.351562 107.710938 189.226562 109.695312 189.085938 111.082031 C 190.058594 111.082031 190.796875 110.757812 191.398438 110.945312 C 193.105469 111.40625 193.011719 113.023438 195.320312 110.570312 C 197.355469 108.449219 195.875 107.664062 197.078125 106.1875 C 198.691406 104.199219 200.078125 107.570312 200.589844 108.726562 C 201.371094 110.339844 202.296875 111.683594 202.941406 113.390625 C 203.035156 113.621094 203.128906 113.851562 203.21875 114.175781 C 203.453125 114.730469 203.589844 114.777344 203.683594 115.097656 C 204.191406 116.855469 201.742188 116.855469 204.835938 119.257812 C 205.808594 119.996094 206.316406 120.875 207.101562 121.796875 L 210.472656 121.984375 L 211.625 124.570312 C 211.71875 124.847656 211.859375 125.308594 212.042969 125.539062 C 212.96875 126.742188 211.949219 125.585938 212.78125 126.09375 C 213.382812 126.464844 213.152344 126.1875 213.519531 126.695312 C 214.90625 128.449219 214.304688 131.449219 214.304688 133.945312 C 214.304688 135.515625 213.289062 134.730469 213.519531 137.222656 C 215.042969 137.777344 214.90625 137.683594 216.847656 137.734375 C 217.402344 139.074219 217.355469 138.195312 217.632812 140.136719 C 217.816406 141.476562 218.140625 141.519531 218.878906 142.398438 C 220.078125 143.832031 219.894531 146.09375 217.585938 145.585938 C 213.980469 144.800781 214.8125 142.859375 207.054688 142.859375 C 207.421875 141.519531 208.164062 140.78125 208.671875 139.535156 C 209.316406 137.964844 210.839844 135.285156 210.703125 133.855469 C 208.117188 133.300781 207.976562 134.589844 207.746094 135.65625 C 207.007812 135.746094 202.160156 136.347656 201.742188 136.625 C 202.066406 137.042969 202.480469 137.085938 203.128906 137.085938 L 203.082031 139.582031 C 199.25 139.582031 200.355469 139.535156 198.691406 137.503906 C 197.539062 136.070312 195.277344 136.902344 193.75 137.546875 C 191.304688 138.519531 191.257812 138.425781 190.058594 140.597656 C 189.039062 142.398438 187.332031 142.585938 187.191406 144.570312 C 189.5 144.339844 189.179688 142.121094 191.949219 140.320312 C 193.058594 139.582031 195.738281 137.871094 197.214844 138.425781 C 200.125 139.488281 195.96875 141.476562 198.925781 144.015625 C 199.570312 144.523438 200.449219 144.660156 201.140625 145.03125 C 203.21875 145.953125 204.46875 145.628906 206.640625 145.167969 C 206.640625 147.847656 206.730469 147.386719 205.300781 148.820312 C 204.191406 149.835938 203.683594 150.066406 201.972656 150.34375 C 200.449219 150.574219 200.21875 151.40625 199.019531 152.238281 C 197.539062 153.253906 197.539062 153.207031 195.367188 153.207031 C 194.90625 150.617188 196.246094 151.914062 196.246094 149.976562 C 193.472656 149.789062 194.953125 150.667969 192.6875 151.265625 C 191.441406 151.589844 190.839844 151.683594 189.917969 152.511719 L 187.839844 154.453125 C 187.332031 155.285156 187.792969 156.765625 187.792969 157.964844 C 186.269531 158.472656 184.835938 158.980469 183.589844 159.949219 C 181.789062 161.292969 182.066406 161.753906 181.097656 163.921875 C 180.449219 165.402344 179.804688 166.648438 179.25 168.542969 C 177.769531 173.578125 178.234375 171.914062 175.597656 174.542969 C 174.121094 176.027344 171.441406 177.226562 170.378906 179.027344 C 168.210938 182.8125 172.550781 184.292969 172.503906 190.4375 L 172.457031 191.5 C 171.675781 191.5 170.84375 191.5 170.242188 191.265625 C 169.179688 190.851562 168.023438 187.851562 167.609375 186.648438 C 165.945312 182.167969 165.945312 181.199219 157.214844 182.261719 L 156.847656 183.832031 C 153.707031 184.292969 153.660156 182.582031 150.890625 182.582031 C 149.363281 182.582031 145.992188 185.355469 145.992188 186.695312 C 145.992188 195.792969 145.207031 193.34375 147.839844 198.332031 C 148.53125 199.628906 149.085938 201.105469 150.613281 201.476562 C 153.984375 202.261719 156.476562 200.230469 156.984375 196.855469 C 160.035156 196.855469 159.480469 196.53125 161.558594 197.777344 C 161.417969 200.367188 160.679688 200.734375 160.679688 205.632812 C 162.34375 206.648438 165.066406 206.832031 167.007812 207.664062 C 169.316406 208.683594 168.578125 211.867188 168.578125 214.914062 C 168.949219 215.5625 169.824219 216.347656 170.335938 216.71875 C 171.488281 217.6875 171.582031 217.363281 173.011719 217.226562 C 177.492188 216.71875 175.597656 217.875 178.601562 218.613281 C 179.804688 217.875 180.265625 216.441406 182.019531 215.65625 C 182.757812 215.378906 183.683594 215.148438 184.46875 214.871094 C 187.238281 213.855469 183.265625 211.40625 191.535156 215.425781 L 193.796875 216.628906 C 196.382812 217.824219 201.003906 216.210938 202.667969 217.226562 C 203.730469 217.875 202.988281 218.058594 203.820312 218.75 C 204.46875 219.210938 206.039062 219.441406 207.46875 220.507812 C 208.53125 221.292969 211.441406 223.925781 212.226562 224.109375 C 216.0625 225.03125 220.21875 223.460938 223.082031 229.328125 C 225.253906 233.902344 222.203125 232.558594 227.46875 233.578125 C 228.578125 233.761719 229.226562 234.039062 230.378906 234.40625 C 234.769531 235.75 234.027344 236.625 237.214844 236.164062 C 239.707031 235.796875 245.898438 239.121094 248.207031 239.949219 C 248.207031 245.355469 247.652344 244.523438 244.515625 247.480469 C 243.359375 248.542969 242.066406 249.144531 241.554688 250.207031 C 241.234375 250.714844 240.773438 253.625 240.402344 254.683594 C 239.570312 257.042969 237.816406 259.953125 235.738281 261.289062 C 234.628906 262.03125 231.71875 261.058594 227.007812 264.15625 C 225.714844 265.03125 225.621094 267.296875 221.882812 270.300781 C 221.1875 270.851562 220.820312 270.898438 220.3125 271.453125 C 219.292969 272.5625 220.265625 272.332031 218.554688 272.699219 C 213.058594 273.761719 215.230469 275.65625 210.886719 276.210938 C 209.550781 276.398438 207.378906 276.902344 206.453125 277.457031 C 204.144531 278.890625 203.035156 280.921875 201.050781 282.03125 C 200.542969 282.308594 201.003906 282.03125 200.542969 282.351562 C 200.21875 282.585938 199.292969 283.324219 197.261719 282.308594 C 195.96875 281.707031 194.445312 282.171875 192.96875 281.800781 C 192.828125 279.535156 191.902344 281.660156 192.828125 279.492188 C 193.335938 278.242188 193.335938 277.6875 192.550781 276.859375 C 190.472656 274.6875 190.519531 274.6875 191.71875 271.871094 C 193.105469 268.542969 191.164062 268.589844 191.996094 266.277344 C 192.273438 265.632812 192.273438 266.1875 192.367188 264.984375 L 192.503906 257.179688 C 192.320312 256.210938 192.550781 257.085938 192.042969 256.394531 C 190.980469 255.011719 191.441406 254.964844 189.59375 254.222656 C 183.777344 251.820312 183.359375 250.667969 179.847656 245.957031 C 179.339844 245.261719 179.109375 244.757812 178.648438 244.203125 C 171.394531 235.054688 174.90625 239.71875 174.214844 234.132812 C 174.121094 233.117188 174.121094 232.097656 174.167969 231.039062 C 175.324219 230.023438 178.277344 227.109375 178.277344 225.402344 C 178.277344 223.738281 176.800781 220.277344 175.09375 220.277344 C 169.964844 220.277344 172.828125 221.617188 167.839844 218.703125 C 164.929688 216.949219 163.542969 212.375 160.449219 211.265625 C 159.339844 210.898438 159.339844 210.898438 158.371094 210.390625 C 157.261719 209.789062 156.9375 210.113281 156.109375 209.742188 C 155.324219 209.375 155.554688 208.957031 154.492188 208.402344 C 153.289062 207.710938 153.660156 208.078125 152.734375 207.15625 C 151.535156 205.910156 149.78125 206.277344 148.164062 206.140625 C 146.683594 206 145.714844 204.9375 144.285156 204.339844 C 140.171875 202.585938 136.246094 200.273438 135 195.839844 C 134.167969 192.839844 131.996094 191.082031 130.332031 188.679688 L 124.097656 178.75 C 123.40625 177.824219 124.007812 178.335938 123.175781 178.105469 C 122.851562 179.070312 122.945312 179.210938 123.5 179.90625 C 124.882812 181.707031 123.683594 181.707031 124.839844 182.632812 L 126.085938 184.570312 C 126.5 185.539062 126.960938 186.277344 127.609375 187.339844 C 128.578125 188.910156 131.8125 190.667969 129.363281 192.605469 C 126.917969 192.285156 125.023438 187.109375 123.730469 185.308594 C 122.757812 184.015625 122.160156 182.539062 121.464844 181.152344 C 120.171875 178.609375 119.570312 173.902344 117.261719 172.144531 C 114.769531 170.339844 110.609375 161.472656 110.609375 159.257812 C 110.609375 155.886719 110.195312 152.511719 110.933594 149.09375 C 111.167969 147.894531 111.671875 148.078125 111.027344 146.695312 C 109.917969 144.382812 111.488281 144.109375 109.410156 141.566406 C 106.5 138.011719 109.042969 136.855469 107.378906 133.667969 C 106.960938 132.882812 106.777344 132.464844 106.039062 131.914062 C 104.746094 130.945312 107.980469 127.339844 103.175781 127.339844 C 103.175781 125.492188 102.019531 123.460938 101.789062 121.519531 C 101.648438 120.460938 101.976562 120.828125 101.417969 119.996094 L 99.847656 117.730469 C 98.789062 116.761719 98.464844 117.269531 97.726562 117.871094 C 96.617188 118.796875 97.125 118.148438 96.203125 118.5625 C 95.277344 118.933594 94.953125 120.320312 94.628906 121.242188 C 93.660156 124.152344 95.09375 126.507812 91.996094 127.292969 C 91.074219 125.679688 92.136719 124.246094 91.210938 123.273438 C 90.65625 126.277344 90.058594 124.660156 89.59375 126.742188 C 92.136719 113.484375 96.664062 100.917969 102.851562 89.328125 C 102.667969 89.789062 102.621094 90.15625 102.667969 90.386719 C 103.636719 90.992188 104.746094 89.835938 105.898438 89.464844 C 107.425781 89 108.441406 89.140625 110.289062 89.050781 C 110.703125 88.355469 110.75 87.941406 111.167969 87.25 C 111.582031 86.554688 112.089844 86.140625 112.507812 85.628906 C 114.398438 83.507812 114.769531 84.105469 117.261719 84.105469 C 118.742188 84.105469 121.003906 82.398438 122.390625 82.351562 C 123.453125 82.351562 125.578125 82.902344 126.683594 83.414062 C 127.515625 83.738281 127.378906 83.644531 127.886719 84.105469 L 127.65625 86.277344 C 128.210938 86.554688 130.289062 85.585938 132.597656 85.585938 C 133.707031 85.585938 133.476562 86.507812 134.304688 87.0625 C 134.675781 87.335938 134.722656 87.292969 135.230469 87.386719 C 135.277344 85.308594 135.691406 85.539062 134.492188 84.199219 C 133.429688 82.996094 134.03125 83.277344 132.320312 83.277344 C 131.210938 83.277344 131.582031 84.800781 129.734375 82.765625 C 128.210938 81.058594 128.441406 82.167969 126.730469 81.289062 C 126.410156 79.578125 127.332031 78.980469 128.671875 78.609375 C 130.65625 78.101562 130.242188 78.289062 131.441406 76.949219 C 129.828125 76.164062 129.59375 77.546875 127.332031 77.085938 C 126.683594 76.207031 127.332031 77.039062 127.007812 76.347656 L 125.808594 74.316406 C 125.117188 75.332031 124.699219 75.191406 123.777344 76.164062 C 122.945312 77.085938 122.621094 77.269531 121.003906 76.949219 C 120.867188 73.667969 123.730469 68.722656 125.992188 66.277344 C 126.871094 65.355469 129.273438 65.074219 130.703125 65.074219 C 132.042969 65.074219 134.121094 66.832031 134.8125 67.433594 C 135.554688 68.03125 135.921875 68.449219 136.570312 68.957031 L 137.449219 69.695312 C 138.140625 70.433594 137.214844 70.203125 138.511719 70.433594 C 138.554688 70.386719 138.601562 70.25 138.601562 70.296875 C 138.742188 70.804688 138.742188 69.972656 138.742188 69.882812 C 139.339844 68.078125 139.480469 66.230469 140.3125 64.476562 C 141.003906 63.136719 144.375 60.316406 144.375 63.503906 C 144.375 64.707031 143.542969 65.539062 142.480469 65.816406 C 142.480469 67.476562 142.390625 69.417969 142.480469 71.035156 C 142.621094 74.453125 146.222656 72.140625 145.207031 75.699219 C 144.976562 76.578125 144.421875 76.761719 143.773438 77.222656 C 144.515625 81.011719 142.710938 79.996094 141.050781 80.550781 L 140.496094 80.78125 L 140.3125 80.871094 L 139.988281 81.058594 L 139.804688 81.152344 C 139.804688 81.152344 139.710938 81.195312 139.664062 81.242188 C 139.988281 81.9375 141.097656 82.492188 141.742188 83.136719 L 144.976562 83.089844 C 145.992188 82.03125 146.640625 81.566406 147.332031 79.855469 C 148.023438 78.148438 147.933594 77.269531 149.226562 75.882812 C 151.8125 75.882812 150.148438 76.578125 151.71875 77.085938 C 152.503906 77.085938 153.9375 77.179688 153.429688 76.023438 C 153.242188 75.5625 151.582031 75.144531 151.582031 73.992188 C 151.582031 69.097656 152.550781 70.25 153.429688 68.722656 C 154.304688 67.203125 153.335938 67.570312 156.015625 67.570312 C 157.125 67.570312 157.816406 70.988281 157.816406 72.097656 C 157.816406 74.175781 157.125 73.070312 158.277344 74.914062 C 159.019531 76.113281 158.785156 76.949219 159.25 78.058594 C 160.265625 77.734375 160.726562 76.300781 161.003906 75.238281 C 161.1875 75.421875 161.28125 75.46875 161.328125 75.46875 C 161.328125 75.515625 161.328125 75.605469 161.464844 75.839844 C 161.558594 76.070312 161.605469 76.394531 161.695312 76.625 C 162.527344 76.53125 162.296875 76.347656 162.945312 76.667969 C 162.945312 78.148438 161.972656 80.132812 162.621094 81.613281 C 163.496094 81.886719 163.683594 81.703125 164.421875 81.335938 C 164.605469 80.367188 164.558594 79.441406 164.976562 78.609375 C 165.4375 77.59375 166.039062 77.453125 166.5 76.667969 C 166.960938 74.777344 164.792969 71.171875 172.367188 74.269531 C 172.414062 75.5625 172.089844 76.898438 172.089844 78.007812 C 172.089844 81.382812 173.246094 81.519531 170.613281 84.011719 C 169.777344 84.753906 169.964844 85.214844 168.808594 86.371094 C 168.949219 87.386719 169.132812 87.105469 169.085938 87.894531 C 168.996094 88.726562 168.71875 88.539062 168.578125 89.558594 C 169.917969 91.265625 172.6875 92.699219 172.320312 95.375 C 170.65625 96.253906 170.335938 94.914062 168.070312 94.683594 C 167.609375 96.53125 167.792969 96.070312 165.667969 96.347656 C 164.328125 96.53125 163.035156 95.835938 162.851562 94.777344 C 162.527344 93.203125 164.007812 93.113281 164.007812 91.726562 C 164.007812 90.667969 163.867188 90.0625 163.265625 89.601562 C 161.925781 90.898438 164.328125 91.726562 159.527344 94.960938 C 155.371094 97.78125 158.1875 98.839844 155.324219 99.902344 C 152.042969 101.148438 153.984375 100.6875 151.441406 105.214844 C 150.148438 107.570312 149.042969 109 150.613281 112.191406 C 152.183594 113.066406 151.90625 111.636719 152.460938 113.808594 C 153.011719 116.207031 153.476562 116.761719 155.785156 117.5 " fill-opacity="1" fill-rule="evenodd"/></g><g fill="#5eb23f" fill-opacity="1"><g transform="translate(18.74525, 248.967845)"><g><path d="M 10.75 -23.484375 C 9.570312 -22.410156 8.984375 -19.53125 8.984375 -14.84375 C 8.984375 -10.15625 9.601562 -7.195312 10.84375 -5.96875 C 11.5625 -5.289062 12.75 -4.953125 14.40625 -4.953125 C 16.0625 -4.953125 17.28125 -5.035156 18.0625 -5.203125 L 18.0625 -11.546875 L 13.78125 -11.84375 L 13.78125 -16.59375 L 24.484375 -16.59375 L 24.484375 -1.390625 C 23.285156 -0.878906 21.753906 -0.425781 19.890625 -0.03125 C 18.023438 0.351562 16.320312 0.546875 14.78125 0.546875 C 13.238281 0.546875 11.882812 0.425781 10.71875 0.1875 C 9.5625 -0.0507812 8.429688 -0.507812 7.328125 -1.1875 C 6.222656 -1.875 5.289062 -2.765625 4.53125 -3.859375 C 2.90625 -6.328125 2.09375 -10 2.09375 -14.875 C 2.09375 -20.976562 3.328125 -25.09375 5.796875 -27.21875 C 7.054688 -28.3125 8.4375 -29.0625 9.9375 -29.46875 C 11.4375 -29.875 13.484375 -30.078125 16.078125 -30.078125 C 18.679688 -30.078125 21.46875 -29.710938 24.4375 -28.984375 L 23.6875 -23.640625 C 19.90625 -24.066406 16.957031 -24.28125 14.84375 -24.28125 C 12.726562 -24.28125 11.363281 -24.015625 10.75 -23.484375 Z M 10.75 -23.484375 "/></g></g></g><g fill="#5eb23f" fill-opacity="1"><g transform="translate(46.205529, 248.967845)"><g><path d="M 25.75 -20.25 C 25.75 -15.789062 23.742188 -12.847656 19.734375 -11.421875 L 19.734375 -11.171875 L 26.921875 0 L 19.28125 0 L 13.859375 -10.5 L 10.078125 -10.578125 L 10.078125 0 L 3.484375 0 L 3.65625 -13.6875 L 3.484375 -29.484375 C 10.148438 -29.878906 13.875 -30.078125 14.65625 -30.078125 C 22.050781 -30.078125 25.75 -26.800781 25.75 -20.25 Z M 10.078125 -16.046875 C 11.984375 -15.847656 13.65625 -15.75 15.09375 -15.75 C 16.539062 -15.75 17.539062 -16.09375 18.09375 -16.78125 C 18.65625 -17.46875 18.9375 -18.78125 18.9375 -20.71875 C 18.9375 -22.664062 18.585938 -23.863281 17.890625 -24.3125 C 17.390625 -24.65625 16.273438 -24.828125 14.546875 -24.828125 C 12.828125 -24.828125 11.335938 -24.738281 10.078125 -24.5625 Z M 10.078125 -16.046875 "/></g></g></g><g fill="#5eb23f" fill-opacity="1"><g transform="translate(75.387321, 248.967845)"><g><path d="M 3.484375 0 L 3.484375 -29.53125 L 21.203125 -29.53125 L 21.203125 -23.890625 L 10.03125 -24.03125 L 9.875 -17.71875 L 20.15625 -17.71875 L 20.15625 -12.1875 L 9.875 -12.1875 L 10.03125 -5.546875 L 21.203125 -5.625 L 21.203125 0 Z M 3.484375 0 "/></g></g></g><g fill="#5eb23f" fill-opacity="1"><g transform="translate(98.52281, 248.967845)"><g><path d="M 3.484375 0 L 3.484375 -29.53125 L 21.203125 -29.53125 L 21.203125 -23.890625 L 10.03125 -24.03125 L 9.875 -17.71875 L 20.15625 -17.71875 L 20.15625 -12.1875 L 9.875 -12.1875 L 10.03125 -5.546875 L 21.203125 -5.625 L 21.203125 0 Z M 3.484375 0 "/></g></g></g><g fill="#5eb23f" fill-opacity="1"><g transform="translate(121.658299, 248.967845)"><g><path d="M 3.484375 -29.53125 L 11.71875 -29.53125 L 20.828125 -8.5625 L 21.078125 -8.5625 L 20.578125 -29.53125 L 26.671875 -29.53125 L 26.671875 0 L 18.4375 0 L 9.328125 -20.953125 L 9.078125 -20.953125 L 9.578125 0 L 3.484375 0 Z M 3.484375 -29.53125 "/></g></g></g><g fill="#5eb23f" fill-opacity="1"><g transform="translate(151.717901, 248.967845)"><g/></g></g><g fill="#5eb23f" fill-opacity="1"><g transform="translate(18.74525, 290.967842)"><g><path d="M 3.484375 0 L 3.484375 -29.53125 L 21.203125 -29.53125 L 21.203125 -23.890625 L 10.03125 -24.03125 L 9.875 -17.71875 L 20.15625 -17.71875 L 20.15625 -12.1875 L 9.875 -12.1875 L 10.03125 -5.546875 L 21.203125 -5.625 L 21.203125 0 Z M 3.484375 0 "/></g></g></g><g fill="#5eb23f" fill-opacity="1"><g transform="translate(41.880739, 290.967842)"><g><path d="M 3.484375 -29.53125 L 11.71875 -29.53125 L 20.828125 -8.5625 L 21.078125 -8.5625 L 20.578125 -29.53125 L 26.671875 -29.53125 L 26.671875 0 L 18.4375 0 L 9.328125 -20.953125 L 9.078125 -20.953125 L 9.578125 0 L 3.484375 0 Z M 3.484375 -29.53125 "/></g></g></g><g fill="#5eb23f" fill-opacity="1"><g transform="translate(71.944286, 290.967842)"><g><path d="M 3.484375 0 L 3.484375 -29.53125 L 21.203125 -29.53125 L 21.203125 -23.890625 L 10.03125 -24.03125 L 9.875 -17.71875 L 20.15625 -17.71875 L 20.15625 -12.1875 L 9.875 -12.1875 L 10.03125 -5.546875 L 21.203125 -5.625 L 21.203125 0 Z M 3.484375 0 "/></g></g></g><g fill="#5eb23f" fill-opacity="1"><g transform="translate(95.079775, 290.967842)"><g><path d="M 25.75 -20.25 C 25.75 -15.789062 23.742188 -12.847656 19.734375 -11.421875 L 19.734375 -11.171875 L 26.921875 0 L 19.28125 0 L 13.859375 -10.5 L 10.078125 -10.578125 L 10.078125 0 L 3.484375 0 L 3.65625 -13.6875 L 3.484375 -29.484375 C 10.148438 -29.878906 13.875 -30.078125 14.65625 -30.078125 C 22.050781 -30.078125 25.75 -26.800781 25.75 -20.25 Z M 10.078125 -16.046875 C 11.984375 -15.847656 13.65625 -15.75 15.09375 -15.75 C 16.539062 -15.75 17.539062 -16.09375 18.09375 -16.78125 C 18.65625 -17.46875 18.9375 -18.78125 18.9375 -20.71875 C 18.9375 -22.664062 18.585938 -23.863281 17.890625 -24.3125 C 17.390625 -24.65625 16.273438 -24.828125 14.546875 -24.828125 C 12.828125 -24.828125 11.335938 -24.738281 10.078125 -24.5625 Z M 10.078125 -16.046875 "/></g></g></g><g fill="#5eb23f" fill-opacity="1"><g transform="translate(124.261567, 290.967842)"><g><path d="M 10.75 -23.484375 C 9.570312 -22.410156 8.984375 -19.53125 8.984375 -14.84375 C 8.984375 -10.15625 9.601562 -7.195312 10.84375 -5.96875 C 11.5625 -5.289062 12.75 -4.953125 14.40625 -4.953125 C 16.0625 -4.953125 17.28125 -5.035156 18.0625 -5.203125 L 18.0625 -11.546875 L 13.78125 -11.84375 L 13.78125 -16.59375 L 24.484375 -16.59375 L 24.484375 -1.390625 C 23.285156 -0.878906 21.753906 -0.425781 19.890625 -0.03125 C 18.023438 0.351562 16.320312 0.546875 14.78125 0.546875 C 13.238281 0.546875 11.882812 0.425781 10.71875 0.1875 C 9.5625 -0.0507812 8.429688 -0.507812 7.328125 -1.1875 C 6.222656 -1.875 5.289062 -2.765625 4.53125 -3.859375 C 2.90625 -6.328125 2.09375 -10 2.09375 -14.875 C 2.09375 -20.976562 3.328125 -25.09375 5.796875 -27.21875 C 7.054688 -28.3125 8.4375 -29.0625 9.9375 -29.46875 C 11.4375 -29.875 13.484375 -30.078125 16.078125 -30.078125 C 18.679688 -30.078125 21.46875 -29.710938 24.4375 -28.984375 L 23.6875 -23.640625 C 19.90625 -24.066406 16.957031 -24.28125 14.84375 -24.28125 C 12.726562 -24.28125 11.363281 -24.015625 10.75 -23.484375 Z M 10.75 -23.484375 "/></g></g></g><g fill="#5eb23f" fill-opacity="1"><g transform="translate(151.721846, 290.967842)"><g><path d="M 8.78125 0 L 8.90625 -10.625 L -0.171875 -29.53125 L 6.84375 -29.53125 L 12.015625 -16 L 12.265625 -16 L 17.4375 -29.53125 L 24.4375 -29.53125 L 15.375 -10.625 L 15.453125 0 Z M 8.78125 0 "/></g></g></g><g fill="#5eb23f" fill-opacity="1"><g transform="translate(18.74525, 332.96784)"><g><path d="M 3.484375 -29.53125 L 11.71875 -29.53125 L 20.828125 -8.5625 L 21.078125 -8.5625 L 20.578125 -29.53125 L 26.671875 -29.53125 L 26.671875 0 L 18.4375 0 L 9.328125 -20.953125 L 9.078125 -20.953125 L 9.578125 0 L 3.484375 0 Z M 3.484375 -29.53125 "/></g></g></g><g fill="#5eb23f" fill-opacity="1"><g transform="translate(48.808797, 332.96784)"><g><path d="M 3.484375 0 L 3.484375 -29.53125 L 21.203125 -29.53125 L 21.203125 -23.890625 L 10.03125 -24.03125 L 9.875 -17.71875 L 20.15625 -17.71875 L 20.15625 -12.1875 L 9.875 -12.1875 L 10.03125 -5.546875 L 21.203125 -5.625 L 21.203125 0 Z M 3.484375 0 "/></g></g></g><g fill="#5eb23f" fill-opacity="1"><g transform="translate(71.944286, 332.96784)"><g><path d="M 12.984375 -22.515625 L 20.703125 -22.515625 L 23.984375 -6.84375 L 24.234375 -6.84375 L 26.453125 -29.53125 L 33.015625 -29.53125 L 28.640625 0 L 20.40625 0 L 16.96875 -16.59375 L 16.71875 -16.59375 L 13.265625 0 L 5.046875 0 L 0.671875 -29.53125 L 7.21875 -29.53125 L 9.453125 -6.84375 L 9.703125 -6.84375 Z M 12.984375 -22.515625 "/></g></g></g><g fill="#5eb23f" fill-opacity="1"><g transform="translate(106.374601, 332.96784)"><g><path d="M 11.671875 -24.28125 C 10.753906 -24.28125 10.039062 -24.101562 9.53125 -23.75 C 9.03125 -23.394531 8.78125 -22.796875 8.78125 -21.953125 C 8.78125 -21.117188 9.132812 -20.425781 9.84375 -19.875 C 10.5625 -19.332031 11.351562 -18.859375 12.21875 -18.453125 C 13.09375 -18.046875 13.867188 -17.695312 14.546875 -17.40625 C 15.234375 -17.113281 15.757812 -16.875 16.125 -16.6875 C 16.488281 -16.507812 16.984375 -16.25 17.609375 -15.90625 C 18.242188 -15.570312 18.734375 -15.257812 19.078125 -14.96875 C 19.429688 -14.675781 19.835938 -14.296875 20.296875 -13.828125 C 20.765625 -13.367188 21.113281 -12.90625 21.34375 -12.4375 C 21.925781 -11.226562 22.21875 -9.9375 22.21875 -8.5625 C 22.21875 -5.851562 21.242188 -3.65625 19.296875 -1.96875 C 17.347656 -0.289062 14.804688 0.546875 11.671875 0.546875 C 10.078125 0.546875 8.425781 0.332031 6.71875 -0.09375 C 5.007812 -0.53125 3.691406 -0.972656 2.765625 -1.421875 L 1.390625 -2.0625 C 1.441406 -2.28125 1.539062 -2.570312 1.6875 -2.9375 C 1.851562 -3.445312 2.300781 -4.90625 3.03125 -7.3125 C 6.46875 -5.9375 9.628906 -5.25 12.515625 -5.25 C 13.328125 -5.25 14.023438 -5.429688 14.609375 -5.796875 C 15.203125 -6.160156 15.5 -7 15.5 -8.3125 C 15.5 -8.925781 15.328125 -9.394531 14.984375 -9.71875 C 14.648438 -10.039062 14.367188 -10.289062 14.140625 -10.46875 C 13.921875 -10.65625 13.601562 -10.859375 13.1875 -11.078125 C 12.769531 -11.304688 12.40625 -11.492188 12.09375 -11.640625 C 11.445312 -11.941406 10.273438 -12.488281 8.578125 -13.28125 C 6.890625 -14.082031 5.664062 -14.789062 4.90625 -15.40625 C 2.976562 -16.925781 2.015625 -18.972656 2.015625 -21.546875 C 2.015625 -24.117188 2.914062 -26.179688 4.71875 -27.734375 C 6.53125 -29.296875 9.101562 -30.078125 12.4375 -30.078125 C 13.632812 -30.078125 14.960938 -29.960938 16.421875 -29.734375 C 17.878906 -29.515625 19.460938 -29.164062 21.171875 -28.6875 L 20.125 -23.3125 C 16.757812 -23.957031 13.941406 -24.28125 11.671875 -24.28125 Z M 11.671875 -24.28125 "/></g></g></g></svg>